<?xml version="1.0" encoding="UTF-8"?>
<svg version="1.1" xmlns="http://www.w3.org/2000/svg" width="220" height="183">
<path d="M0 0 C3.34759823 2.69385851 6.13864296 5.80543503 9 9 C9.72960937 9.70769531 10.45921875 10.41539063 11.2109375 11.14453125 C13.45180512 13.46857518 13.92147763 14.78058267 14 18 C12.08703545 21.6890759 9.78474464 24.4646727 6.85630798 27.39093018 C6.01365891 28.23777374 5.17100983 29.08461731 4.30282593 29.9571228 C3.38167999 30.87264923 2.46053406 31.78817566 1.51147461 32.73144531 C0.52864576 33.71534786 -0.45374979 34.69968339 -1.43574524 35.68441772 C-4.09634508 38.34985343 -6.76313398 41.00901594 -9.43122792 43.66694736 C-12.22294091 46.44986403 -15.00936771 49.23806437 -17.79649353 52.02557373 C-22.47461385 56.70275844 -27.15658616 61.37605865 -31.84106445 66.046875 C-37.26068661 71.45074979 -42.67504227 76.85985556 -48.08642966 82.27197576 C-53.29147226 87.47762806 -58.49936328 92.68042037 -63.7088604 97.88161469 C-65.92690691 100.09612652 -68.14409844 102.31148923 -70.36064339 104.52750397 C-72.96758257 107.13344072 -75.57704978 109.73681948 -78.18852043 112.33821487 C-79.60678404 113.75215169 -81.02260017 115.16854213 -82.43835449 116.58499146 C-83.27818375 117.42055573 -84.118013 118.25612 -84.98329163 119.11700439 C-85.71498597 119.8470229 -86.44668032 120.5770414 -87.20054722 121.32918167 C-89.40178313 123.37306154 -90.66507693 123.93620513 -93.625 124.5 C-98.78116302 123.736124 -101.42802415 120.61598377 -105 117 C-105.53496094 116.49855469 -106.06992188 115.99710937 -106.62109375 115.48046875 C-109.25217173 112.77485598 -110.03108242 110.8394075 -110.75 107.125 C-110.50742971 103.6071384 -109.39429922 101.91360184 -107.04011536 99.33726501 C-106.40313532 98.63937803 -105.76615528 97.94149105 -105.10987282 97.22245598 C-101.33570862 93.24690175 -97.48884342 89.3502144 -93.6081543 85.47875977 C-92.69350906 84.56236221 -91.77886383 83.64596466 -90.83650208 82.70179749 C-88.35157759 80.21235399 -85.86354897 77.72603559 -83.37477088 75.24044538 C-80.76370764 72.63192997 -78.15510319 70.02095746 -75.5460968 67.41038513 C-71.17274412 63.03521974 -66.79730147 58.66215281 -62.4206543 54.2902832 C-57.35913798 49.23422823 -52.30126163 44.17455337 -47.24522084 39.11302334 C-42.89617982 34.75944989 -38.54520022 30.40782107 -34.19258243 26.0578236 C-31.59599082 23.46279142 -29.00008076 20.86708716 -26.40592003 18.26962471 C-23.52175611 15.38204535 -20.63353772 12.49855542 -17.74487305 9.61547852 C-16.88409149 8.75267273 -16.02330994 7.88986694 -15.13644409 7.00091553 C-14.3528804 6.22017166 -13.56931671 5.4394278 -12.76200867 4.63502502 C-12.07975566 3.95314904 -11.39750265 3.27127306 -10.69457531 2.56873417 C-7.27667529 -0.59534861 -4.56341743 -0.72435197 0 0 Z " fill="#5270F9" transform="translate(125,18)"/>
<path d="M0 0 C1.7457428 1.25708008 1.7457428 1.25708008 3.61743164 2.95703125 C4.67282639 3.91440186 4.67282639 3.91440186 5.74954224 4.89111328 C12.49906101 11.21603559 19.06950701 17.72189125 25.63842773 24.23339844 C27.51082579 26.08407569 29.3894692 27.92845468 31.27416992 29.76660156 C34.00855228 32.43422214 36.7228564 35.12088105 39.43359375 37.8125 C40.2782872 38.62936279 41.12298065 39.44622559 41.99327087 40.2878418 C48.39556068 46.71305383 48.39556068 46.71305383 49.12133789 50.890625 C48.88012934 57.07177618 44.88103387 60.27214352 40.625 64.3125 C37.17708812 67.2630082 34.7362233 69.32292432 30 69 C25.4287521 67.19556004 22.30495665 63.42973685 18.96484375 59.9375 C17.0436166 57.94515904 17.0436166 57.94515904 14.75390625 56.375 C14.17511719 55.92125 13.59632812 55.4675 13 55 C13 54.34 13 53.68 13 53 C12.45859375 52.78601563 11.9171875 52.57203125 11.359375 52.3515625 C8.1607203 50.51922057 5.79035516 48.00203394 3.25 45.375 C2.74339844 44.859375 2.23679688 44.34375 1.71484375 43.8125 C0.47196098 42.54616661 -0.76465276 41.2736856 -2 40 C-7.1938251 41.48386283 -10.11063191 44.73993351 -13.76171875 48.50390625 C-14.39358597 49.14238998 -15.02545319 49.78087372 -15.6764679 50.43870544 C-17.68738971 52.47297555 -19.6878483 54.51715572 -21.6875 56.5625 C-23.69957977 58.60963092 -25.7137835 60.65460806 -27.73066711 62.69700623 C-28.98369115 63.9670228 -30.23361793 65.24010401 -31.48014832 66.51649475 C-36.65962535 71.78554006 -36.65962535 71.78554006 -41.125 72.5 C-46.6799924 71.78322679 -49.20556578 68.92144457 -53 65 C-53.80050781 64.23042969 -53.80050781 64.23042969 -54.6171875 63.4453125 C-57.01870129 60.93525572 -57.99592697 59.01832864 -58.75 55.625 C-56.95754307 46.96145818 -47.04627985 39.89979666 -40.98046875 33.84765625 C-40.03104843 32.89756065 -39.08177646 31.9473168 -38.13264465 30.99693298 C-36.16011503 29.02294123 -34.18581861 27.05073914 -32.21020508 25.07983398 C-29.67702339 22.552396 -27.14842172 20.0204305 -24.62108898 17.48714542 C-22.66955192 15.53200245 -20.71564907 13.57923782 -18.76101112 11.62719536 C-17.37368135 10.24085585 -15.98836335 8.85250409 -14.60307312 7.46412659 C-13.34585197 6.21163368 -13.34585197 6.21163368 -12.06323242 4.93383789 C-11.3248967 4.19629776 -10.58656097 3.45875763 -9.82585144 2.6988678 C-6.61403857 -0.28957109 -4.3342037 -0.64210425 0 0 Z " fill="#5270FB" transform="translate(107,104)"/>
<path d="M0 0 C1.92759705 1.57356262 1.92759705 1.57356262 3.77709961 3.45239258 C4.82860451 4.5090789 4.82860451 4.5090789 5.90135193 5.58711243 C6.64417923 6.34856064 7.38700653 7.11000885 8.15234375 7.89453125 C8.93009659 8.6789006 9.70784943 9.46326996 10.50917053 10.27140808 C12.99248411 12.77810288 15.46542688 15.29472347 17.9375 17.8125 C20.40767323 20.31784098 22.88000161 22.82099913 25.3551178 25.32145691 C26.8932437 26.87643141 28.42826431 28.43448561 29.95970154 29.99604797 C33.81804962 33.90786734 37.73465131 37.53860394 42 41 C43.22338017 42.32184135 44.41627622 43.67322154 45.5625 45.0625 C48.1606377 48.11174293 50.80695119 50.56319959 54 53 C55.70884005 54.62339805 57.37446717 56.29319053 59 58 C59.47050781 58.4640625 59.94101563 58.928125 60.42578125 59.40625 C62.86482866 61.98957909 63.97748139 63.89866623 64.75 67.375 C63.65929219 72.64675439 60.78565817 75.32546683 57 79 C56.12021484 79.928125 56.12021484 79.928125 55.22265625 80.875 C52.26972613 83.76766624 50.76794334 84.93018697 46.5625 85.3125 C36.93989022 81.76732798 29.43148489 71.59496663 22.2578125 64.42578125 C21.04099547 63.21218325 19.82410577 61.99865811 18.60714722 60.78520203 C16.07226496 58.25627253 13.53942219 55.72532054 11.0078125 53.19311523 C7.76473051 49.94993103 4.51478608 46.71371725 1.26309395 43.47916889 C-1.24530559 40.98187783 -3.74915719 38.48006523 -6.25174332 35.97694969 C-7.44862689 34.78124494 -8.64712956 33.58715858 -9.84728622 32.39473915 C-11.52000084 30.73181501 -13.18626922 29.06268325 -14.85107422 27.3918457 C-15.34560593 26.9029335 -15.84013763 26.4140213 -16.34965515 25.91029358 C-18.77957539 23.45792174 -20.81991582 21.27617756 -22 18 C-21.92983875 12.93084957 -20.87625633 10.15767278 -17.24609375 6.57226562 C-16.75238281 6.11529297 -16.25867188 5.65832031 -15.75 5.1875 C-15.03263672 4.47303711 -15.03263672 4.47303711 -14.30078125 3.74414062 C-9.40313815 -0.97432041 -6.30555378 -3.05224968 0 0 Z " fill="#5270FA" transform="translate(143,71)"/>
<path d="M0 0 C0.66 0.33 1.32 0.66 2 1 C2.53789272 4.6884072 2.74360539 6.84696903 0.6875 10.03515625 C-1.12280833 12.13236613 -3.00651424 14.07632503 -5 16 C-5.62132812 16.61875 -6.24265625 17.2375 -6.8828125 17.875 C-10.25401982 21.02729776 -10.25401982 21.02729776 -12 22 C-14.20703125 21.65234375 -14.20703125 21.65234375 -16 21 C-14.02 20.34 -12.04 19.68 -10 19 C-10 18.34 -10 17.68 -10 17 C-9.34 17 -8.68 17 -8 17 C-8.33 15.02 -8.66 13.04 -9 11 C-8.38125 10.71125 -7.7625 10.4225 -7.125 10.125 C-4.86674235 9.06279958 -4.86674235 9.06279958 -3 7 C-2.01 7.33 -1.02 7.66 0 8 C0 5.36 0 2.72 0 0 Z " fill="#5B73E4" transform="translate(205,134)"/>
<path d="M0 0 C3.83132316 1.56090944 6.1075134 4.1075134 9 7 C9.99 7.33 10.98 7.66 12 8 C12 8.66 12 9.32 12 10 C13.65 10 15.3 10 17 10 C17 9.34 17 8.68 17 8 C17.99 8 18.98 8 20 8 C20 7.34 20 6.68 20 6 C20.66 6 21.32 6 22 6 C22 5.34 22 4.68 22 4 C22.66 4 23.32 4 24 4 C24.33 2.68 24.66 1.36 25 0 C26.32 0.33 27.64 0.66 29 1 C27.54474941 2.48219967 26.085701 3.96067139 24.625 5.4375 C23.81289062 6.26121094 23.00078125 7.08492187 22.1640625 7.93359375 C19.52373445 10.45477342 18.49691951 10.92049288 14.875 11.5 C8.67723455 10.70028833 5.00361254 6.58123056 1.265625 1.765625 C0.84796875 1.18296875 0.4303125 0.6003125 0 0 Z " fill="#5870DC" transform="translate(51,165)"/>
<path d="M0 0 C2.27751344 1.47368516 4.02007 3.11435238 6 5 C3 5 3 5 1 4 C1 3.34 1 2.68 1 2 C-4.88562817 2.58778038 -4.88562817 2.58778038 -9.7109375 5.69140625 C-11.23833106 7.81561148 -11.23833106 7.81561148 -13 11 C-13.99 10.34 -14.98 9.68 -16 9 C-14.71142987 7.68445979 -13.41904109 6.37265903 -12.125 5.0625 C-11.04605469 3.96615234 -11.04605469 3.96615234 -9.9453125 2.84765625 C-6.69232569 -0.24202801 -4.439042 -0.51219715 0 0 Z " fill="#536AD7" transform="translate(107,104)"/>
<path d="M0 0 C0.66 0.33 1.32 0.66 2 1 C2.625 3.5625 2.625 3.5625 3 6 C2.34 6 1.68 6 1 6 C1 6.66 1 7.32 1 8 C0.01 8.33 -0.98 8.66 -2 9 C-2.2475 8.38125 -2.495 7.7625 -2.75 7.125 C-4.22246063 4.62181694 -5.41028837 4.16954719 -8 3 C-8.33 2.34 -8.66 1.68 -9 1 C-8.071875 1.350625 -7.14375 1.70125 -6.1875 2.0625 C-3.0197047 3.32382628 -3.0197047 3.32382628 0 2 C0 1.34 0 0.68 0 0 Z " fill="#475FF9" transform="translate(124,152)"/>
<path d="M0 0 C0.66 0.33 1.32 0.66 2 1 C1.51286902 5.41510774 0.14946803 7.30446645 -3.0625 10.3125 C-3.79597656 11.00988281 -4.52945313 11.70726563 -5.28515625 12.42578125 C-5.85105469 12.94527344 -6.41695313 13.46476562 -7 14 C-7 11 -7 11 -5 8 C-4.36707617 5.88719655 -4.36707617 5.88719655 -4 4 C-3.34 4 -2.68 4 -2 4 C-1.34 2.68 -0.68 1.36 0 0 Z " fill="#516FEA" transform="translate(88,82)"/>
<path d="M0 0 C0 0.99 0 1.98 0 3 C-0.825 3.804375 -1.65 4.60875 -2.5 5.4375 C-5.46554923 7.88052115 -5.46554923 7.88052115 -5 12 C-4.34 12 -3.68 12 -3 12 C-3.33 13.98 -3.66 15.96 -4 18 C-3.34 18.33 -2.68 18.66 -2 19 C-2.99 19 -3.98 19 -5 19 C-7.42747173 16.13905118 -7.98569428 14.3862544 -8.125 10.625 C-6.6125407 5.75152002 -3.80277332 3.26661207 0 0 Z " fill="#546DDA" transform="translate(129,75)"/>
<path d="M0 0 C1.98 0 3.96 0 6 0 C6.0825 0.78375 6.165 1.5675 6.25 2.375 C6.72806339 5.14749104 6.72806339 5.14749104 9.0625 6.3125 C9.701875 6.539375 10.34125 6.76625 11 7 C10.34 7.66 9.68 8.32 9 9 C8.278125 8.175 7.55625 7.35 6.8125 6.5 C4.27082634 3.75592194 4.27082634 3.75592194 1.1875 3.6875 C0.1046875 3.8421875 0.1046875 3.8421875 -1 4 C-0.67 2.68 -0.34 1.36 0 0 Z " fill="#4861EF" transform="translate(101,140)"/>
<path d="M0 0 C0 4.61205904 -2.88770454 6.79993916 -6 10 C-8.2730396 12.07794837 -10.60438888 14.06508332 -13 16 C-13.66 15.67 -14.32 15.34 -15 15 C-10.05 10.05 -5.1 5.1 0 0 Z " fill="#6577DC" transform="translate(111,24)"/>
<path d="M0 0 C0.66 0.99 1.32 1.98 2 3 C0.1128125 2.9071875 0.1128125 2.9071875 -1.8125 2.8125 C-5.12160278 2.70441438 -5.12160278 2.70441438 -7.75 4.5625 C-8.1625 5.036875 -8.575 5.51125 -9 6 C-11.1875 5.6875 -11.1875 5.6875 -13 5 C-8.69264847 0.79770583 -6.30832974 -0.97051227 0 0 Z " fill="#5E71E3" transform="translate(125,18)"/>
<path d="M0 0 C0 0.99 0 1.98 0 3 C-1 4 -2 5 -3 6 C-3.6496875 7.546875 -3.6496875 7.546875 -4.3125 9.125 C-6 12 -6 12 -9.1875 12.875 C-10.5796875 12.936875 -10.5796875 12.936875 -12 13 C-8.19524578 8.43969176 -4.25030379 4.14910608 0 0 Z " fill="#566AD9" transform="translate(74,130)"/>
<path d="M0 0 C0.66 0.66 1.32 1.32 2 2 C4.58354218 2.16687448 4.58354218 2.16687448 7 2 C5.875 3.5 5.875 3.5 4 5 C0.90498792 5.25265405 -1.20129973 5.39935013 -4 4 C-4 3.34 -4 2.68 -4 2 C-2.68 1.34 -1.36 0.68 0 0 Z " fill="#5369E4" transform="translate(30,137)"/>
<path d="M0 0 C0.33 1.32 0.66 2.64 1 4 C-0.26391488 5.00873016 -1.53640883 6.00671822 -2.8125 7 C-3.87404297 7.8353125 -3.87404297 7.8353125 -4.95703125 8.6875 C-7 10 -7 10 -10 10 C-6.7 6.7 -3.4 3.4 0 0 Z " fill="#5269D3" transform="translate(85,119)"/>
<path d="M0 0 C0 4.61538462 0 4.61538462 -1 7 C-3.89111788 8.52164099 -5.71823412 9 -9 9 C-6.03 6.03 -3.06 3.06 0 0 Z " fill="#566CDC" transform="translate(61,143)"/>
<path d="M0 0 C1.14926266 0.95421808 2.29430541 1.91352045 3.4375 2.875 C4.07558594 3.40867188 4.71367187 3.94234375 5.37109375 4.4921875 C7 6 7 6 8 8 C5.69 7.34 3.38 6.68 1 6 C0.67 4.02 0.34 2.04 0 0 Z " fill="#566FDE" transform="translate(146,143)"/>
<path d="M0 0 C2.02054804 1.64169528 4.02043058 3.30911778 6 5 C6 5.33 6 5.66 6 6 C4.35 6 2.7 6 1 6 C0.67 6.66 0.34 7.32 0 8 C0 5.36 0 2.72 0 0 Z " fill="#536CDF" transform="translate(121,118)"/>
<path d="M0 0 C0.66 0.66 1.32 1.32 2 2 C1.34 2 0.68 2 0 2 C0 1.34 0 0.68 0 0 Z M-5 1 C-2.525 1.495 -2.525 1.495 0 2 C0.33 3.65 0.66 5.3 1 7 C-1.02054804 5.35830472 -3.02043058 3.69088222 -5 2 C-5 1.67 -5 1.34 -5 1 Z " fill="#516EE2" transform="translate(165,128)"/>
<path d="M0 0 C2.31 1.98 4.62 3.96 7 6 C5 6 3 6 1 6 C0.67 4.02 0.34 2.04 0 0 Z " fill="#596FE2" transform="translate(143,72)"/>
</svg>
